<?xml version="1.0" encoding="utf-8"?>
<!-- Generator: Adobe Illustrator 20.1.0, SVG Export Plug-In . SVG Version: 6.00 Build 0)  -->
<svg version="1.1" id="Layer_1" xmlns="http://www.w3.org/2000/svg" xmlns:xlink="http://www.w3.org/1999/xlink" x="0px" y="0px"
	 viewBox="0 0 30 43.1" style="enable-background:new 0 0 30 43.1;" xml:space="preserve">
<g>
	<path d="M7.4,24.3c-0.3,0-0.5-0.1-0.7-0.3c-0.4-0.4-0.4-1,0-1.4L21.9,7.3c0.4-0.4,1-0.4,1.4,0s0.4,1,0,1.4L8.1,24
		C7.9,24.2,7.6,24.3,7.4,24.3z"/>
	<path d="M7.4,24.3c-0.6,0-1-0.4-1-1V8c0-0.6,0.4-1,1-1s1,0.4,1,1v15.3C8.4,23.9,7.9,24.3,7.4,24.3z"/>
	<path d="M15,16.7c-0.3,0-0.5-0.1-0.7-0.3L6.6,8.7c-0.4-0.4-0.4-1,0-1.4s1-0.4,1.4,0l7.6,7.6c0.4,0.4,0.4,1,0,1.4
		C15.5,16.6,15.3,16.7,15,16.7z"/>
</g>
<g>
	<path d="M7.4,32c-0.3,0-0.5-0.1-0.7-0.3c-0.4-0.4-0.4-1,0-1.4L21.9,15c0.4-0.4,1-0.4,1.4,0s0.4,1,0,1.4L8.1,31.7
		C7.9,31.9,7.6,32,7.4,32z"/>
	<path d="M22.7,32c-0.6,0-1-0.4-1-1V15.7c0-0.6,0.4-1,1-1s1,0.4,1,1V31C23.7,31.5,23.2,32,22.7,32z"/>
	<path d="M22.7,32c-0.3,0-0.5-0.1-0.7-0.3L14.3,24c-0.4-0.4-0.4-1,0-1.4s1-0.4,1.4,0l7.7,7.6c0.4,0.4,0.4,1,0,1.4
		C23.2,31.9,22.9,32,22.7,32z"/>
</g>
<path d="M15,32c-0.6,0-1-0.4-1-1V9.3c0-0.6,0.4-1,1-1s1,0.4,1,1V31C16,31.5,15.6,32,15,32z"/>
<path d="M15,43.1L0,37.7V0h30v37.7L15,43.1z M2,36.3l13,4.6l13-4.6V2H2V36.3z"/>
</svg>
